<svg xmlns="http://www.w3.org/2000/svg" xmlns:xlink="http://www.w3.org/1999/xlink" id="Capa_1" x="0" y="0" version="1.1" viewBox="0 0 259.8 262.3" style="enable-background:new 0 0 259.8 262.3" xml:space="preserve"><style type="text/css">.st0{fill:none}</style><path d="M158.3,201.4c0.7-0.6,1.3-1.2,2-1.8c-0.1-0.1-0.2-0.2-0.3-0.3c-1.4-1.5-2.3-3.3-2.8-5.3	c-2.2,1.8-4.3,3.6-6.3,5.5c-0.2,0.2-0.4,0.4-0.6,0.6c1.3,1.1,2.4,2.5,3.2,4c0.6,1.1,1.1,2.4,1.4,3.9c1.1-0.1,2.2,0,3.3,0.3	C156.6,206.4,156.1,203.5,158.3,201.4z" class="st0"/><path d="M151.8,108.2c4.2-1.3,9-1.7,13.3-2.4c5.1-0.8,10.3-1.5,15.6-1.7c3.4-0.1,7-0.2,10.6,0.1	c-3.9-0.6-8-0.9-12.1-0.9C169.5,103.3,160.3,105,151.8,108.2z" class="st0"/><g><path d="M109.4,216c-54.8-2.3-98.6-47.6-98.6-103c0-56.8,46.2-103,103-103c8.4,0,16.8,1.1,25,3.1c-15.9,8.4-29.6,20.4-40,35.3 c-13.3,19-20.3,41.3-20.3,64.6s7,45.6,20.3,64.6c1.2,1.7,2.5,3.4,3.8,5.1c-0.9-5.3,0-10.4,0.2-15.9c0-0.4,0.1-0.7,0.1-1.1 c-9.2-15.5-14.4-33.6-14.4-52.7c0-42.9,25.9-80.6,66-96.1c1.9-0.7,3.2-2.6,3.2-4.7s-1.3-3.9-3.2-4.7C141.3,2.6,127.6,0,113.8,0 C51.5,0,0.8,50.7,0.8,113s50.7,113,113,113c0.8,0,1.7,0,2.5,0C113.5,223.1,110.6,219.7,109.4,216z"/><path d="M161.9,68.4l11.9,0.7l6.1,10.2c0.8,1.3,2.1,2,3.6,2c0.1,0,0.2,0,0.3,0c1.6-0.1,2.9-1.1,3.5-2.6l4.4-11.1l11.6-2.7 c1.5-0.4,2.7-1.6,3.1-3.1c0.4-1.5-0.2-3.2-1.4-4.2l-9.2-7.6l1-11.8c0.1-1.6-0.6-3.1-2-3.9c-1.4-0.8-3.1-0.8-4.4,0l-10,6.4 l-10.9-4.6c-1.5-0.6-3.1-0.4-4.3,0.7c-1.2,1-1.7,2.7-1.3,4.2l3,11.5l-7.8,9c-1,1.2-1.3,2.9-0.7,4.3 C158.9,67.3,160.3,68.3,161.9,68.4z M175.4,52.6l-1.4-5.5l5.2,2.2c1.3,0.5,2.7,0.4,3.9-0.3l4.8-3l-0.5,5.6 c-0.1,1.4,0.4,2.7,1.5,3.6l4.4,3.6l-5.5,1.3c-1.3,0.3-2.4,1.3-2.9,2.5l-2.1,5.3l-2.9-4.8c-0.7-1.2-1.9-1.9-3.3-2l-5.6-0.3l3.7-4.3 C175.4,55.3,175.8,53.9,175.4,52.6z"/></g><g><g><path d="M171.9,104.5c-43.2,0-78.2,35.2-78.2,78.2c0,43.2,35.2,78.3,78.2,78.3c43.2,0,78.2-35.2,78.2-78.2 C250.2,139.7,215,104.5,171.9,104.5z M171.9,250.8c-37.5,0-68.1-30.5-68.1-68.1c0-37.5,30.5-68.1,68.1-68.1 c37.5,0,68.1,30.5,68.1,68.1S209.3,250.8,171.9,250.8z"/><path d="M203,177.7h-26v-26c0-2.8-2.3-5.1-5.1-5.1s-5.1,2.3-5.1,5.1v26h-26c-2.8,0-5.1,2.3-5.1,5.1s2.3,5.1,5.1,5.1h26v26 c0,2.8,2.3,5.1,5.1,5.1s5.1-2.3,5.1-5.1v-26h26c2.8,0,5.1-2.3,5.1-5.1C208.1,179.9,205.8,177.7,203,177.7z"/></g></g></svg>