<svg xmlns="http://www.w3.org/2000/svg" xmlns:xlink="http://www.w3.org/1999/xlink" id="Layer_1" x="0" y="0" version="1.1" viewBox="0 0 512 532.3" style="enable-background:new 0 0 512 532.3" xml:space="preserve"><path d="M271.8,35L254.9,4.1c-1.6-2.6-4.4-4.1-7.5-4.1c-3,0-5.9,1.5-7.5,4.1L223,35l-30.9,16.9c-2.7,1.5-4.4,4.4-4.4,7.5	s1.7,6,4.4,7.5L223,83.8l16.9,30.9c1.5,2.7,4.4,4.4,7.5,4.4s6-1.7,7.5-4.4l16.9-30.9l30.9-16.9c2.7-1.5,4.4-4.4,4.4-7.5	s-1.7-6-4.4-7.5L271.8,35z M261.4,70c-1.4,0.8-2.6,2-3.4,3.4l-10.6,19.4l-10.6-19.4c-0.8-1.4-2-2.6-3.4-3.4L214,59.4l19.4-10.6	c1.4-0.8,2.6-2,3.4-3.4L247.4,26L258,45.4c0.8,1.4,2,2.6,3.4,3.4l19.4,10.6L261.4,70z"/><path d="M366.9,221.5c-30.4,0-60.1,9.6-84.7,27.5l7.7-77c0.5-4.8-1.1-9.6-4.4-13.2c-3.3-3.6-7.9-5.6-12.7-5.6h-139l10-18.3	l30.9-16.9c2.7-1.5,4.4-4.4,4.4-7.5s-1.7-6-4.4-7.5l-30.9-16.9l-16.9-30.9c-1.6-2.6-4.4-4.1-7.5-4.1c-3,0-5.9,1.6-7.5,4.1L95,86.2	l-30.9,16.9c-2.7,1.5-4.4,4.4-4.4,7.5s1.7,6,4.4,7.5L95,135l10,18.3H17.1c-4.8,0-9.4,2-12.7,5.6c-3.2,3.6-4.8,8.4-4.3,13.2L31.2,481	c1.7,17.5,16.5,30.9,34.1,30.7h159.6c17.6,0.1,32.4-13.2,34.1-30.7l1.6-16.1c45,48.7,117.4,60.7,175.7,29S524,395,507.6,330.7	C491.1,266.5,433.2,221.5,366.9,221.5z M86,110.6l19.4-10.6c1.4-0.8,2.6-2,3.4-3.4l10.6-19.4L130,96.6c0.8,1.4,2,2.6,3.4,3.4	l19.4,10.6l-19.4,10.6c-1.4,0.8-2.6,2-3.4,3.4L119.4,144l-10.6-19.4c-0.8-1.4-2-2.6-3.4-3.4L86,110.6z M273,170.3l-7.4,73.1	c-2.1-1.1-4.1-2.3-6.2-3.6c-19.3-13.1-44.7-13.1-64,0c-6.7,4.9-14.8,7.5-23.1,7.3c-8.3,0.2-16.3-2.3-23-7.2c-9.3-6.6-20.6-10-32-9.8	c-11.4-0.2-22.7,3.2-32,9.8c-6.6,4.9-14.7,7.4-22.9,7.2c-8.2,0.2-16.3-2.3-22.9-7.2c-5-3.4-10.5-6-16.3-7.7L17,170.3H273L273,170.3z M241.9,479.2c-0.9,8.8-8.3,15.4-17.1,15.4H65.2c-8.8,0-16.2-6.6-17.1-15.4L25.2,251.3c1.8,1,3.6,2,5.4,3.1	c9.3,6.6,20.5,10,31.9,9.8c11.4,0.2,22.6-3.2,31.9-9.8c6.6-4.9,14.7-7.5,23-7.3c8.3-0.2,16.3,2.3,23,7.3c9.3,6.6,20.5,10,32,9.8	c11.4,0.2,22.6-3.2,32-9.8c13.8-9.7,32.2-9.7,46.1,0c4.2,2.7,8.7,5,13.4,6.8l-0.4,3.9c-47.7,48.4-55.3,123.5-18.1,180.4L241.9,479.2	z M366.9,494.6c-70.7,0-128-57.3-128-128s57.3-128,128-128s128,57.3,128,128C494.8,437.3,437.5,494.5,366.9,494.6z"/><g><g><path d="M366.9,220.3c-80.7,0-146.3,65.6-146.3,146.3s65.6,146.3,146.3,146.3s146.3-65.6,146.3-146.3S447.5,220.3,366.9,220.3z M366.9,493.7c-70.1,0-127.1-57-127.1-127.1s57-127.1,127.1-127.1S494,296.5,494,366.6S437,493.7,366.9,493.7z"/><path d="M425,357h-48.5v-48.5c0-5.3-4.3-9.6-9.6-9.6s-9.6,4.3-9.6,9.6V357h-48.5c-5.3,0-9.6,4.3-9.6,9.6c0,5.3,4.3,9.6,9.6,9.6 h48.5v48.5c0,5.3,4.3,9.6,9.6,9.6c5.3,0,9.6-4.3,9.6-9.6v-48.5H425c5.3,0,9.6-4.3,9.6-9.6S430.3,357,425,357z"/></g></g></svg>