<?xml version="1.0" encoding="utf-8"?>
<!-- Generator: Adobe Illustrator 23.1.1, SVG Export Plug-In . SVG Version: 6.00 Build 0)  -->
<svg version="1.1" id="Layer_1" xmlns="http://www.w3.org/2000/svg" xmlns:xlink="http://www.w3.org/1999/xlink" x="0px" y="0px"
	 viewBox="0 0 511.9 511.9" style="enable-background:new 0 0 511.9 511.9;" xml:space="preserve">
<style type="text/css">
	.st0{fill:#FFFFFF;stroke:#FFFFFF;stroke-miterlimit:10;}
	.st1{fill:#FFFFFF;}
</style>
<path class="st0" d="M316,359.7c-0.3,0.3-0.6,0.6-1,0.9c2.7,0,5.3,0.1,8,0.2l0,0C320.7,360.5,318.3,360.2,316,359.7z"/>
<g transform="translate(0 1)">
	<g>
		<g>
			<path class="st1" d="M306.9,483.2c-4.1,1.5-9,1.9-13.8-0.5c-5.3-2.4-8.7-7.2-9.8-13.1c-3.3-2-4.6-4.7-7.1-8.1
				c-2.8-3.8-6.7-6.6-9.4-10.4l-0.9,6c-4.4,17.7,4.4,34.4,19.4,41.5c5.3,2.6,9.7,3.5,15,3.5s10.6-0.9,15.9-3.5
				c3.2-1.6,6.2-3.8,8.8-6.4C318.6,490.6,312.2,487.1,306.9,483.2z"/>
			<path class="st1" d="M503.3,110.2l-0.9-0.9c-11.5-11.5-31.8-11.5-43.3,0l-45.9,46.8c-2.6,2.6-6.2,2.6-8.8,0l-64.4-60
				c-6.2-5.3-14.1-8.8-23-8.8h-96.2c-2.6,0-4.4,0.9-5.3,1.8l-81.2,77.7c-11.5,12.4-12.4,31.8-1.8,43.3c5.3,6.2,13.2,9.7,22.1,9.7
				s16.8-3.5,22.1-9.7l57.4-60.9h20.3L120.2,299.1h-83c-20.3,0-36.2,15-37.1,33.5c-0.9,9.7,2.6,19.4,9.7,26.5
				c7.1,6.2,15.9,10.6,25.6,10.6H159c2.6,0,4.4-0.9,6.2-2.6l63.6-68l13.9,14.6c1.7-6,5.1-11.9,8.1-16.6l-15.9-16.6
				c-1.8-1.8-3.5-2.6-6.2-2.6s-5.3,0.9-6.2,2.6L155.4,352h-120c-5.3,0-9.7-1.8-13.2-5.3c-2.6-3.5-4.4-7.9-4.4-13.2
				c0-9.7,8.8-16.8,19.4-16.8h86.5c2.6,0,4.4-0.9,6.2-0.9L280,148.1c2.6-2.6,2.6-6.2,1.8-9.7c-0.9-3.5-4.4-5.3-7.9-5.3h-44.1
				c-1.8,0-4.4,0.9-6.2,2.6l-60,63.6c-1.8,2.6-5.3,4.4-8.8,4.4s-7.1-1.8-9.7-4.4c-4.4-5.3-4.4-13.2,0.9-18.5l78.6-75h93.6
				c3.5,0,7.9,1.8,10.6,4.4l64.4,60c9.7,8.8,24.7,7.9,33.5-0.9l45.9-46.8c4.4-4.4,13.2-4.4,17.7,0l0.9,0.9
				c4.2,4.4,4.2,12.4-0.3,16.8L415,216.1c-5.3,4.4-13.2,4.4-17.7,0l-46.8-46.8c-3.5-3.5-8.8-3.5-12.4,0l-70.6,70.6
				c-1.8,1.8-2.6,3.5-2.6,6.2s0.9,4.4,3.5,7.1l8.1,8.1c1.7-2.2,3.6-3.9,5.6-5.2c1.1-1.3,2.2-2.6,3.6-3.7c1.5-1.2,3-1.8,4.5-2.2
				l-4.1-4.1l58.3-58.3l35.8,35.8c7-0.9,14.2,2.9,20.8,4.3c4.3,0.9,8.7,2,12.7,3.8c2,0.1,4.1,0.2,6.2,0.3c0.8,0,1.6,0.2,2.2,0.6
				c1.9-1.2,3.7-2.6,5.4-4.2l75.9-75.9C514.8,141.1,514.8,121.7,503.3,110.2z"/>
			<path class="st1" d="M406.2,113.7c29.1,0,53-23.8,53-53s-23.8-53-53-53s-53,23.8-53,53S377.1,113.7,406.2,113.7z M406.2,25.4
				c19.4,0,35.3,15.9,35.3,35.3S425.6,96,406.2,96s-35.3-15.9-35.3-35.3S386.8,25.4,406.2,25.4z"/>
		</g>
	</g>
</g>
<g>
	<g>
		<path class="st1" d="M372.2,221c-78.6,0-142.6,64-142.6,142.6s64,142.6,142.6,142.6s142.6-64,142.6-142.6
			C514.8,284.9,450.9,221,372.2,221z M372.2,487.4c-68.3,0-123.9-55.6-123.9-123.9s55.6-123.9,123.9-123.9s123.9,55.6,123.9,123.9
			C496.1,431.9,440.5,487.4,372.2,487.4z"/>
		<path class="st1" d="M428.9,354.2h-47.3v-47.3c0-5.2-4.2-9.3-9.3-9.3c-5.2,0-9.3,4.2-9.3,9.3v47.3h-47.3c-5.2,0-9.3,4.2-9.3,9.3
			c0,5.2,4.2,9.3,9.3,9.3H363v47.3c0,5.2,4.2,9.3,9.3,9.3c5.2,0,9.3-4.2,9.3-9.3v-47.3h47.3c5.2,0,9.3-4.2,9.3-9.3
			C438.2,358.4,434.1,354.2,428.9,354.2z"/>
	</g>
</g>
</svg>
